<mxfile host="app.diagrams.net" modified="2022-08-09T20:29:45.282Z" agent="5.0 (Windows NT 10.0; Win64; x64) AppleWebKit/537.36 (KHTML, like Gecko) Chrome/104.0.0.0 Safari/537.36" etag="i4UvYqtAMSjt4Pr5jdVD" version="20.2.3" type="github" pages="5">
  <diagram id="g0U-hw6_M0ZF5h3cZhGz" name="BasicStructure">
    <mxGraphModel dx="862" dy="482" grid="1" gridSize="10" guides="1" tooltips="1" connect="1" arrows="1" fold="1" page="1" pageScale="1" pageWidth="827" pageHeight="1169" math="0" shadow="0">
      <root>
        <mxCell id="0" />
        <mxCell id="1" parent="0" />
        <mxCell id="7DbQcB8dosO6MNOWGtFo-1" style="edgeStyle=orthogonalEdgeStyle;rounded=0;orthogonalLoop=1;jettySize=auto;html=1;entryX=0.5;entryY=0;entryDx=0;entryDy=0;strokeWidth=2;" edge="1" parent="1" source="7DbQcB8dosO6MNOWGtFo-2" target="7DbQcB8dosO6MNOWGtFo-4">
          <mxGeometry relative="1" as="geometry" />
        </mxCell>
        <mxCell id="7DbQcB8dosO6MNOWGtFo-2" value="start" style="strokeWidth=2;html=1;shape=mxgraph.flowchart.start_1;whiteSpace=wrap;" vertex="1" parent="1">
          <mxGeometry x="350" y="50" width="100" height="60" as="geometry" />
        </mxCell>
        <mxCell id="7DbQcB8dosO6MNOWGtFo-3" style="edgeStyle=orthogonalEdgeStyle;rounded=0;orthogonalLoop=1;jettySize=auto;html=1;entryX=0.5;entryY=0;entryDx=0;entryDy=0;strokeWidth=2;" edge="1" parent="1" source="7DbQcB8dosO6MNOWGtFo-4" target="7DbQcB8dosO6MNOWGtFo-6">
          <mxGeometry relative="1" as="geometry" />
        </mxCell>
        <mxCell id="7DbQcB8dosO6MNOWGtFo-4" value="setup()" style="rounded=1;whiteSpace=wrap;html=1;absoluteArcSize=1;arcSize=14;strokeWidth=2;" vertex="1" parent="1">
          <mxGeometry x="350" y="150" width="100" height="50" as="geometry" />
        </mxCell>
        <mxCell id="7DbQcB8dosO6MNOWGtFo-6" value="loop()" style="rounded=1;whiteSpace=wrap;html=1;absoluteArcSize=1;arcSize=14;strokeWidth=2;" vertex="1" parent="1">
          <mxGeometry x="350" y="230" width="100" height="60" as="geometry" />
        </mxCell>
        <mxCell id="7DbQcB8dosO6MNOWGtFo-7" style="edgeStyle=orthogonalEdgeStyle;rounded=0;orthogonalLoop=1;jettySize=auto;html=1;exitX=0.5;exitY=1;exitDx=0;exitDy=0;entryX=1;entryY=0.5;entryDx=0;entryDy=0;strokeWidth=2;" edge="1" parent="1" source="7DbQcB8dosO6MNOWGtFo-6" target="7DbQcB8dosO6MNOWGtFo-6">
          <mxGeometry relative="1" as="geometry" />
        </mxCell>
      </root>
    </mxGraphModel>
  </diagram>
  <diagram id="K5cdW9qSBhDuDgplZziP" name="Functions">
    <mxGraphModel dx="862" dy="482" grid="1" gridSize="10" guides="1" tooltips="1" connect="1" arrows="1" fold="1" page="1" pageScale="1" pageWidth="827" pageHeight="1169" math="0" shadow="0">
      <root>
        <mxCell id="0" />
        <mxCell id="1" parent="0" />
        <mxCell id="_ZmAJTIupCt7vs1mP2Eb-1" style="edgeStyle=orthogonalEdgeStyle;rounded=0;orthogonalLoop=1;jettySize=auto;html=1;entryX=0.5;entryY=0;entryDx=0;entryDy=0;strokeWidth=2;" edge="1" parent="1" source="_ZmAJTIupCt7vs1mP2Eb-2" target="_ZmAJTIupCt7vs1mP2Eb-4">
          <mxGeometry relative="1" as="geometry" />
        </mxCell>
        <mxCell id="_ZmAJTIupCt7vs1mP2Eb-2" value="start" style="strokeWidth=2;html=1;shape=mxgraph.flowchart.start_1;whiteSpace=wrap;" vertex="1" parent="1">
          <mxGeometry x="350" y="50" width="100" height="60" as="geometry" />
        </mxCell>
        <mxCell id="_ZmAJTIupCt7vs1mP2Eb-3" style="edgeStyle=orthogonalEdgeStyle;rounded=0;orthogonalLoop=1;jettySize=auto;html=1;entryX=0.5;entryY=0;entryDx=0;entryDy=0;strokeWidth=2;" edge="1" parent="1" source="_ZmAJTIupCt7vs1mP2Eb-4" target="_ZmAJTIupCt7vs1mP2Eb-6">
          <mxGeometry relative="1" as="geometry" />
        </mxCell>
        <mxCell id="_ZmAJTIupCt7vs1mP2Eb-4" value="setup()" style="rounded=1;whiteSpace=wrap;html=1;absoluteArcSize=1;arcSize=14;strokeWidth=2;" vertex="1" parent="1">
          <mxGeometry x="350" y="150" width="100" height="50" as="geometry" />
        </mxCell>
        <mxCell id="_ZmAJTIupCt7vs1mP2Eb-5" style="edgeStyle=orthogonalEdgeStyle;rounded=0;orthogonalLoop=1;jettySize=auto;html=1;strokeWidth=2;exitX=0;exitY=0.25;exitDx=0;exitDy=0;entryX=1;entryY=0.25;entryDx=0;entryDy=0;" edge="1" parent="1" source="_ZmAJTIupCt7vs1mP2Eb-6" target="_ZmAJTIupCt7vs1mP2Eb-9">
          <mxGeometry relative="1" as="geometry" />
        </mxCell>
        <mxCell id="_ZmAJTIupCt7vs1mP2Eb-6" value="loop()" style="rounded=1;whiteSpace=wrap;html=1;absoluteArcSize=1;arcSize=14;strokeWidth=2;" vertex="1" parent="1">
          <mxGeometry x="350" y="230" width="100" height="60" as="geometry" />
        </mxCell>
        <mxCell id="_ZmAJTIupCt7vs1mP2Eb-7" style="edgeStyle=orthogonalEdgeStyle;rounded=0;orthogonalLoop=1;jettySize=auto;html=1;exitX=0.5;exitY=1;exitDx=0;exitDy=0;entryX=1;entryY=0.5;entryDx=0;entryDy=0;strokeWidth=2;" edge="1" parent="1" source="_ZmAJTIupCt7vs1mP2Eb-6" target="_ZmAJTIupCt7vs1mP2Eb-6">
          <mxGeometry relative="1" as="geometry" />
        </mxCell>
        <mxCell id="_ZmAJTIupCt7vs1mP2Eb-8" style="edgeStyle=orthogonalEdgeStyle;rounded=0;orthogonalLoop=1;jettySize=auto;html=1;entryX=0;entryY=0.75;entryDx=0;entryDy=0;strokeWidth=2;exitX=1;exitY=0.75;exitDx=0;exitDy=0;" edge="1" parent="1" source="_ZmAJTIupCt7vs1mP2Eb-9" target="_ZmAJTIupCt7vs1mP2Eb-6">
          <mxGeometry relative="1" as="geometry">
            <Array as="points">
              <mxPoint x="290" y="272" />
              <mxPoint x="310" y="272" />
              <mxPoint x="310" y="275" />
            </Array>
          </mxGeometry>
        </mxCell>
        <mxCell id="_ZmAJTIupCt7vs1mP2Eb-9" value="functionX()" style="rounded=1;whiteSpace=wrap;html=1;absoluteArcSize=1;arcSize=14;strokeWidth=2;" vertex="1" parent="1">
          <mxGeometry x="180" y="235" width="100" height="50" as="geometry" />
        </mxCell>
      </root>
    </mxGraphModel>
  </diagram>
  <diagram id="m6kZIW5okhRsk1OSW0CM" name="Loop - for">
    <mxGraphModel dx="862" dy="482" grid="1" gridSize="10" guides="1" tooltips="1" connect="1" arrows="1" fold="1" page="1" pageScale="1" pageWidth="827" pageHeight="1169" math="0" shadow="0">
      <root>
        <mxCell id="0" />
        <mxCell id="1" parent="0" />
        <mxCell id="N_AwySmJN-RLu4blgh-N-1" style="edgeStyle=orthogonalEdgeStyle;rounded=0;orthogonalLoop=1;jettySize=auto;html=1;entryX=0.5;entryY=0;entryDx=0;entryDy=0;strokeWidth=2;" edge="1" parent="1" source="N_AwySmJN-RLu4blgh-N-2" target="N_AwySmJN-RLu4blgh-N-4">
          <mxGeometry relative="1" as="geometry" />
        </mxCell>
        <mxCell id="N_AwySmJN-RLu4blgh-N-2" value="&lt;b&gt;for&lt;/b&gt;" style="strokeWidth=2;html=1;shape=mxgraph.flowchart.start_1;whiteSpace=wrap;" vertex="1" parent="1">
          <mxGeometry x="350" y="50" width="100" height="60" as="geometry" />
        </mxCell>
        <mxCell id="N_AwySmJN-RLu4blgh-N-12" style="edgeStyle=orthogonalEdgeStyle;rounded=0;orthogonalLoop=1;jettySize=auto;html=1;" edge="1" parent="1" source="N_AwySmJN-RLu4blgh-N-4" target="N_AwySmJN-RLu4blgh-N-10">
          <mxGeometry relative="1" as="geometry" />
        </mxCell>
        <mxCell id="N_AwySmJN-RLu4blgh-N-4" value="Inicializavimas" style="rounded=1;whiteSpace=wrap;html=1;absoluteArcSize=1;arcSize=14;strokeWidth=2;" vertex="1" parent="1">
          <mxGeometry x="350" y="150" width="100" height="50" as="geometry" />
        </mxCell>
        <mxCell id="N_AwySmJN-RLu4blgh-N-17" style="edgeStyle=orthogonalEdgeStyle;rounded=0;orthogonalLoop=1;jettySize=auto;html=1;entryX=0;entryY=0.5;entryDx=0;entryDy=0;startArrow=none;" edge="1" parent="1" source="N_AwySmJN-RLu4blgh-N-18" target="N_AwySmJN-RLu4blgh-N-10">
          <mxGeometry relative="1" as="geometry">
            <Array as="points">
              <mxPoint x="300" y="270" />
            </Array>
          </mxGeometry>
        </mxCell>
        <mxCell id="N_AwySmJN-RLu4blgh-N-6" value="{ ciklo veiksmai }" style="rounded=1;whiteSpace=wrap;html=1;absoluteArcSize=1;arcSize=14;strokeWidth=2;" vertex="1" parent="1">
          <mxGeometry x="350" y="360" width="100" height="60" as="geometry" />
        </mxCell>
        <mxCell id="N_AwySmJN-RLu4blgh-N-11" style="edgeStyle=orthogonalEdgeStyle;rounded=0;orthogonalLoop=1;jettySize=auto;html=1;exitX=0.5;exitY=1;exitDx=0;exitDy=0;strokeWidth=2;" edge="1" parent="1" source="N_AwySmJN-RLu4blgh-N-10" target="N_AwySmJN-RLu4blgh-N-6">
          <mxGeometry relative="1" as="geometry" />
        </mxCell>
        <mxCell id="N_AwySmJN-RLu4blgh-N-13" value="Taip" style="edgeLabel;html=1;align=center;verticalAlign=middle;resizable=0;points=[];" vertex="1" connectable="0" parent="N_AwySmJN-RLu4blgh-N-11">
          <mxGeometry x="0.1741" relative="1" as="geometry">
            <mxPoint y="-10" as="offset" />
          </mxGeometry>
        </mxCell>
        <mxCell id="N_AwySmJN-RLu4blgh-N-14" style="edgeStyle=orthogonalEdgeStyle;rounded=0;orthogonalLoop=1;jettySize=auto;html=1;entryX=1;entryY=0.5;entryDx=0;entryDy=0;entryPerimeter=0;" edge="1" parent="1" source="N_AwySmJN-RLu4blgh-N-10" target="N_AwySmJN-RLu4blgh-N-15">
          <mxGeometry relative="1" as="geometry">
            <mxPoint x="580" y="451.37931034482745" as="targetPoint" />
            <Array as="points">
              <mxPoint x="480" y="270" />
              <mxPoint x="480" y="485" />
            </Array>
          </mxGeometry>
        </mxCell>
        <mxCell id="N_AwySmJN-RLu4blgh-N-16" value="Ne" style="edgeLabel;html=1;align=center;verticalAlign=middle;resizable=0;points=[];" vertex="1" connectable="0" parent="N_AwySmJN-RLu4blgh-N-14">
          <mxGeometry x="-0.3991" y="-1" relative="1" as="geometry">
            <mxPoint y="4" as="offset" />
          </mxGeometry>
        </mxCell>
        <mxCell id="N_AwySmJN-RLu4blgh-N-10" value="sÄ…lyga" style="rhombus;whiteSpace=wrap;html=1;" vertex="1" parent="1">
          <mxGeometry x="360" y="230" width="80" height="80" as="geometry" />
        </mxCell>
        <mxCell id="N_AwySmJN-RLu4blgh-N-15" value="" style="strokeWidth=2;html=1;shape=mxgraph.flowchart.start_1;whiteSpace=wrap;" vertex="1" parent="1">
          <mxGeometry x="385" y="470" width="30" height="30" as="geometry" />
        </mxCell>
        <mxCell id="N_AwySmJN-RLu4blgh-N-18" value="iteracija" style="rounded=1;whiteSpace=wrap;html=1;absoluteArcSize=1;arcSize=14;strokeWidth=2;" vertex="1" parent="1">
          <mxGeometry x="250" y="300" width="100" height="40" as="geometry" />
        </mxCell>
        <mxCell id="N_AwySmJN-RLu4blgh-N-19" value="" style="edgeStyle=orthogonalEdgeStyle;rounded=0;orthogonalLoop=1;jettySize=auto;html=1;entryX=0.5;entryY=1;entryDx=0;entryDy=0;endArrow=none;" edge="1" parent="1" source="N_AwySmJN-RLu4blgh-N-6" target="N_AwySmJN-RLu4blgh-N-18">
          <mxGeometry relative="1" as="geometry">
            <mxPoint x="350" y="390.0000000000001" as="sourcePoint" />
            <mxPoint x="360" y="270" as="targetPoint" />
            <Array as="points">
              <mxPoint x="300" y="390" />
            </Array>
          </mxGeometry>
        </mxCell>
      </root>
    </mxGraphModel>
  </diagram>
  <diagram name="Loop - while" id="ceNviQeWNfxS91l26e_v">
    <mxGraphModel dx="862" dy="482" grid="1" gridSize="10" guides="1" tooltips="1" connect="1" arrows="1" fold="1" page="1" pageScale="1" pageWidth="827" pageHeight="1169" math="0" shadow="0">
      <root>
        <mxCell id="JIWTmdxBkXSFFeF52YCT-0" />
        <mxCell id="JIWTmdxBkXSFFeF52YCT-1" parent="JIWTmdxBkXSFFeF52YCT-0" />
        <mxCell id="JIWTmdxBkXSFFeF52YCT-2" style="edgeStyle=orthogonalEdgeStyle;rounded=0;orthogonalLoop=1;jettySize=auto;html=1;entryX=0.5;entryY=0;entryDx=0;entryDy=0;strokeWidth=2;" edge="1" parent="JIWTmdxBkXSFFeF52YCT-1" source="JIWTmdxBkXSFFeF52YCT-3" target="JIWTmdxBkXSFFeF52YCT-12">
          <mxGeometry relative="1" as="geometry">
            <mxPoint x="400" y="230" as="targetPoint" />
          </mxGeometry>
        </mxCell>
        <mxCell id="JIWTmdxBkXSFFeF52YCT-3" value="&lt;b&gt;while&lt;/b&gt;" style="strokeWidth=2;html=1;shape=mxgraph.flowchart.start_1;whiteSpace=wrap;" vertex="1" parent="JIWTmdxBkXSFFeF52YCT-1">
          <mxGeometry x="350" y="130" width="100" height="60" as="geometry" />
        </mxCell>
        <mxCell id="KX7zWpDncRf0YNpvtbjm-0" style="edgeStyle=orthogonalEdgeStyle;rounded=0;orthogonalLoop=1;jettySize=auto;html=1;entryX=0;entryY=0.5;entryDx=0;entryDy=0;strokeWidth=2;" edge="1" parent="JIWTmdxBkXSFFeF52YCT-1" target="JIWTmdxBkXSFFeF52YCT-12">
          <mxGeometry relative="1" as="geometry">
            <mxPoint x="340" y="390" as="sourcePoint" />
            <Array as="points">
              <mxPoint x="310" y="390" />
              <mxPoint x="310" y="270" />
            </Array>
          </mxGeometry>
        </mxCell>
        <mxCell id="JIWTmdxBkXSFFeF52YCT-7" value="{ ciklo veiksmai ir iteracija }" style="rounded=1;whiteSpace=wrap;html=1;absoluteArcSize=1;arcSize=14;strokeWidth=2;" vertex="1" parent="JIWTmdxBkXSFFeF52YCT-1">
          <mxGeometry x="350" y="360" width="100" height="60" as="geometry" />
        </mxCell>
        <mxCell id="JIWTmdxBkXSFFeF52YCT-8" style="edgeStyle=orthogonalEdgeStyle;rounded=0;orthogonalLoop=1;jettySize=auto;html=1;exitX=0.5;exitY=1;exitDx=0;exitDy=0;strokeWidth=2;" edge="1" parent="JIWTmdxBkXSFFeF52YCT-1" source="JIWTmdxBkXSFFeF52YCT-12" target="JIWTmdxBkXSFFeF52YCT-7">
          <mxGeometry relative="1" as="geometry" />
        </mxCell>
        <mxCell id="JIWTmdxBkXSFFeF52YCT-9" value="Taip" style="edgeLabel;html=1;align=center;verticalAlign=middle;resizable=0;points=[];" vertex="1" connectable="0" parent="JIWTmdxBkXSFFeF52YCT-8">
          <mxGeometry x="0.1741" relative="1" as="geometry">
            <mxPoint y="-10" as="offset" />
          </mxGeometry>
        </mxCell>
        <mxCell id="JIWTmdxBkXSFFeF52YCT-10" style="edgeStyle=orthogonalEdgeStyle;rounded=0;orthogonalLoop=1;jettySize=auto;html=1;entryX=1;entryY=0.5;entryDx=0;entryDy=0;entryPerimeter=0;strokeWidth=2;" edge="1" parent="JIWTmdxBkXSFFeF52YCT-1" source="JIWTmdxBkXSFFeF52YCT-12" target="JIWTmdxBkXSFFeF52YCT-13">
          <mxGeometry relative="1" as="geometry">
            <mxPoint x="580" y="451.37931034482745" as="targetPoint" />
            <Array as="points">
              <mxPoint x="480" y="270" />
              <mxPoint x="480" y="485" />
            </Array>
          </mxGeometry>
        </mxCell>
        <mxCell id="JIWTmdxBkXSFFeF52YCT-11" value="Ne" style="edgeLabel;html=1;align=center;verticalAlign=middle;resizable=0;points=[];" vertex="1" connectable="0" parent="JIWTmdxBkXSFFeF52YCT-10">
          <mxGeometry x="-0.3991" y="-1" relative="1" as="geometry">
            <mxPoint y="4" as="offset" />
          </mxGeometry>
        </mxCell>
        <mxCell id="JIWTmdxBkXSFFeF52YCT-12" value="(sÄ…lyga)" style="rhombus;whiteSpace=wrap;html=1;" vertex="1" parent="JIWTmdxBkXSFFeF52YCT-1">
          <mxGeometry x="360" y="230" width="80" height="80" as="geometry" />
        </mxCell>
        <mxCell id="JIWTmdxBkXSFFeF52YCT-13" value="" style="strokeWidth=2;html=1;shape=mxgraph.flowchart.start_1;whiteSpace=wrap;" vertex="1" parent="JIWTmdxBkXSFFeF52YCT-1">
          <mxGeometry x="385" y="470" width="30" height="30" as="geometry" />
        </mxCell>
        <mxCell id="wm35aucBdxbeTu0vOH4W-1" style="edgeStyle=orthogonalEdgeStyle;rounded=0;orthogonalLoop=1;jettySize=auto;html=1;entryX=0.5;entryY=0;entryDx=0;entryDy=0;entryPerimeter=0;strokeWidth=2;" edge="1" parent="JIWTmdxBkXSFFeF52YCT-1" source="wm35aucBdxbeTu0vOH4W-0" target="JIWTmdxBkXSFFeF52YCT-3">
          <mxGeometry relative="1" as="geometry" />
        </mxCell>
        <mxCell id="wm35aucBdxbeTu0vOH4W-0" value="inicializavimas" style="rounded=1;whiteSpace=wrap;html=1;absoluteArcSize=1;arcSize=14;strokeWidth=2;fillColor=#f5f5f5;fontColor=#333333;strokeColor=#666666;" vertex="1" parent="JIWTmdxBkXSFFeF52YCT-1">
          <mxGeometry x="350" y="60" width="100" height="40" as="geometry" />
        </mxCell>
      </root>
    </mxGraphModel>
  </diagram>
  <diagram name="Loop - do_while" id="vf3iZdz44o1eySauv1Nc">
    <mxGraphModel dx="862" dy="482" grid="1" gridSize="10" guides="1" tooltips="1" connect="1" arrows="1" fold="1" page="1" pageScale="1" pageWidth="827" pageHeight="1169" math="0" shadow="0">
      <root>
        <mxCell id="lkTH10_n0cSBz0TneY8p-0" />
        <mxCell id="lkTH10_n0cSBz0TneY8p-1" parent="lkTH10_n0cSBz0TneY8p-0" />
        <mxCell id="lkTH10_n0cSBz0TneY8p-2" style="edgeStyle=orthogonalEdgeStyle;rounded=0;orthogonalLoop=1;jettySize=auto;html=1;strokeWidth=2;entryX=0.5;entryY=0;entryDx=0;entryDy=0;" edge="1" parent="lkTH10_n0cSBz0TneY8p-1" source="lkTH10_n0cSBz0TneY8p-3" target="lkTH10_n0cSBz0TneY8p-5">
          <mxGeometry relative="1" as="geometry">
            <mxPoint x="400" y="210" as="targetPoint" />
          </mxGeometry>
        </mxCell>
        <mxCell id="lkTH10_n0cSBz0TneY8p-3" value="&lt;b&gt;do&lt;/b&gt;" style="strokeWidth=2;html=1;shape=mxgraph.flowchart.start_1;whiteSpace=wrap;" vertex="1" parent="lkTH10_n0cSBz0TneY8p-1">
          <mxGeometry x="350" y="130" width="100" height="60" as="geometry" />
        </mxCell>
        <mxCell id="lkTH10_n0cSBz0TneY8p-5" value="{ ciklo veiksmai ir iteracija }" style="rounded=1;whiteSpace=wrap;html=1;absoluteArcSize=1;arcSize=14;strokeWidth=2;" vertex="1" parent="lkTH10_n0cSBz0TneY8p-1">
          <mxGeometry x="350" y="220" width="100" height="60" as="geometry" />
        </mxCell>
        <mxCell id="lkTH10_n0cSBz0TneY8p-6" style="edgeStyle=orthogonalEdgeStyle;rounded=0;orthogonalLoop=1;jettySize=auto;html=1;exitX=0;exitY=0.5;exitDx=0;exitDy=0;strokeWidth=2;entryX=0;entryY=0.5;entryDx=0;entryDy=0;" edge="1" parent="lkTH10_n0cSBz0TneY8p-1" source="lkTH10_n0cSBz0TneY8p-10" target="lkTH10_n0cSBz0TneY8p-5">
          <mxGeometry relative="1" as="geometry">
            <mxPoint x="230" y="420" as="targetPoint" />
            <Array as="points">
              <mxPoint x="320" y="340" />
              <mxPoint x="320" y="250" />
            </Array>
          </mxGeometry>
        </mxCell>
        <mxCell id="lkTH10_n0cSBz0TneY8p-7" value="Taip" style="edgeLabel;html=1;align=center;verticalAlign=middle;resizable=0;points=[];" vertex="1" connectable="0" parent="lkTH10_n0cSBz0TneY8p-6">
          <mxGeometry x="0.1741" relative="1" as="geometry">
            <mxPoint y="18" as="offset" />
          </mxGeometry>
        </mxCell>
        <mxCell id="lkTH10_n0cSBz0TneY8p-8" style="edgeStyle=orthogonalEdgeStyle;rounded=0;orthogonalLoop=1;jettySize=auto;html=1;entryX=0.5;entryY=0;entryDx=0;entryDy=0;entryPerimeter=0;exitX=0.5;exitY=1;exitDx=0;exitDy=0;strokeWidth=2;" edge="1" parent="lkTH10_n0cSBz0TneY8p-1" source="lkTH10_n0cSBz0TneY8p-10" target="lkTH10_n0cSBz0TneY8p-11">
          <mxGeometry relative="1" as="geometry">
            <mxPoint x="580" y="451.37931034482745" as="targetPoint" />
            <Array as="points">
              <mxPoint x="400" y="420" />
              <mxPoint x="400" y="420" />
            </Array>
          </mxGeometry>
        </mxCell>
        <mxCell id="lkTH10_n0cSBz0TneY8p-9" value="Ne" style="edgeLabel;html=1;align=center;verticalAlign=middle;resizable=0;points=[];" vertex="1" connectable="0" parent="lkTH10_n0cSBz0TneY8p-8">
          <mxGeometry x="-0.3991" y="-1" relative="1" as="geometry">
            <mxPoint y="4" as="offset" />
          </mxGeometry>
        </mxCell>
        <mxCell id="lkTH10_n0cSBz0TneY8p-10" value="&lt;b&gt;while&lt;/b&gt; (sÄ…lyga)" style="rhombus;whiteSpace=wrap;html=1;" vertex="1" parent="lkTH10_n0cSBz0TneY8p-1">
          <mxGeometry x="325" y="300" width="150" height="80" as="geometry" />
        </mxCell>
        <mxCell id="lkTH10_n0cSBz0TneY8p-11" value="" style="strokeWidth=2;html=1;shape=mxgraph.flowchart.start_1;whiteSpace=wrap;" vertex="1" parent="lkTH10_n0cSBz0TneY8p-1">
          <mxGeometry x="385" y="440" width="30" height="30" as="geometry" />
        </mxCell>
        <mxCell id="lkTH10_n0cSBz0TneY8p-14" style="edgeStyle=orthogonalEdgeStyle;rounded=0;orthogonalLoop=1;jettySize=auto;html=1;entryX=0.5;entryY=0;entryDx=0;entryDy=0;entryPerimeter=0;strokeWidth=2;" edge="1" parent="lkTH10_n0cSBz0TneY8p-1" source="lkTH10_n0cSBz0TneY8p-15" target="lkTH10_n0cSBz0TneY8p-3">
          <mxGeometry relative="1" as="geometry" />
        </mxCell>
        <mxCell id="lkTH10_n0cSBz0TneY8p-15" value="inicializavimas" style="rounded=1;whiteSpace=wrap;html=1;absoluteArcSize=1;arcSize=14;strokeWidth=2;fillColor=#f5f5f5;fontColor=#333333;strokeColor=#666666;" vertex="1" parent="lkTH10_n0cSBz0TneY8p-1">
          <mxGeometry x="350" y="60" width="100" height="40" as="geometry" />
        </mxCell>
      </root>
    </mxGraphModel>
  </diagram>
</mxfile>
